<?xml version="1.0" encoding="UTF-8"?>
<svg id="Layer_2" data-name="Layer 2" xmlns="http://www.w3.org/2000/svg" viewBox="0 0 461.62 220.36">
  <defs>
    <style>
      .cls-1 {
        fill: none;
        stroke: #fff;
        stroke-miterlimit: 10;
        stroke-width: 10px;
      }
    </style>
  </defs>
  <g id="Layer_3" data-name="Layer 3">
    <g>
      <path class="cls-1" d="M451.72,15.98l-11.18-8.03c-3.29-2.36-7.36-3.36-11.37-2.79l-118.15,16.88c-2.27.32-4.57.36-6.85.12l-119.68-12.88c-1.53-.16-3.07.03-4.51.56l-10.4,3.84c-1.86.69-1.9,3.31-.06,4.06l83.32,33.81c3.21,1.3,2.91,5.94-.45,6.81-34.66,8.95-143.13,36.82-142.46,34.82.72-2.15-35.95-36.47-43.21-43.25-.73-.68-1.83-.79-2.69-.26l-15.61,9.66c-3.31,2.05-4.37,6.37-2.39,9.72l18.91,31.92c1.73,2.92,1.33,6.62-.98,9.11l-2.03,2.19c-2.11,2.27-1.25,5.94,1.64,7.05l57.61,22.1c3.01,1.15,6.31,1.29,9.4.4L437.22,53.22c2.94-.85,5.48-2.73,7.14-5.3l10.37-15.98c3.42-5.27,2.09-12.29-3-15.95Z"/>
      <path class="cls-1" d="M153.67,171.8c-33.28,14.66-66.56,29.32-99.84,43.99"/>
      <line class="cls-1" x1="63.57" y1="119.31" x2="2.16" y2="148.76"/>
      <path class="cls-1" d="M204.64,29.71c-21.18,8.5-42.36,16.99-63.54,25.49"/>
    </g>
  </g>
</svg>