<svg width="101" height="48" viewBox="0 0 101 48" fill="none" xmlns="http://www.w3.org/2000/svg">
<g clip-path="url(#clip0_6_30)">
<path d="M98.1419 3.47185L95.7129 1.72723C94.9981 1.21449 94.1139 0.997226 93.2426 1.12107L67.5731 4.78846C67.0799 4.85798 66.5802 4.86667 66.0848 4.81453L40.0828 2.01619C39.7504 1.98143 39.4158 2.02271 39.103 2.13785L36.8434 2.97214C36.4393 3.12205 36.4306 3.69128 36.8304 3.85423L54.9327 11.1999C55.6301 11.4823 55.565 12.4904 54.835 12.6794C47.3046 14.6239 23.7381 20.6791 23.8837 20.2445C24.0401 19.7774 16.0731 12.321 14.4958 10.8479C14.3372 10.7002 14.0982 10.6763 13.9114 10.7914L10.5199 12.8902C9.80074 13.3356 9.57045 14.2741 10.0006 15.002L14.1091 21.937C14.4849 22.5714 14.398 23.3753 13.8961 23.9163L13.4551 24.3921C12.9967 24.8853 13.1835 25.6826 13.8114 25.9238L26.3279 30.7253C26.9819 30.9751 27.6988 31.0056 28.3702 30.8122L94.9916 11.5627C95.6304 11.378 96.1822 10.9696 96.5429 10.4112L98.7959 6.93936C99.5389 5.79439 99.25 4.2692 98.1441 3.47402L98.1419 3.47185Z" stroke="white" stroke-width="2.17263" stroke-miterlimit="10"/>
<path d="M33.3868 37.3257C26.1563 40.5108 18.9258 43.6959 11.6953 46.8831" stroke="white" stroke-width="2.17263" stroke-miterlimit="10"/>
<path d="M13.8114 25.9216L0.469299 32.32" stroke="white" stroke-width="2.17263" stroke-miterlimit="10"/>
<path d="M44.4606 6.45486C39.859 8.3016 35.2574 10.1462 30.6558 11.9929" stroke="white" stroke-width="2.17263" stroke-miterlimit="10"/>
</g>
<defs>
<clipPath id="clip0_6_30">
<rect width="100.293" height="47.876" fill="white"/>
</clipPath>
</defs>
</svg>
